<svg enable-background="new 0 0 140 140" height="512" viewBox="0 0 140 140" width="512" xmlns="http://www.w3.org/2000/svg"><circle cx="70" cy="70" fill="#344d5b" r="64"/><path d="m134 69.9999924c0-2.7996826-.1994019-5.5512695-.5480347-8.2560997l-22.2952957-22.3473511c-.1799927-.2000122-.3699951-.3800049-.5599976-.5700073l-.4099731-.4099731-.0100098.0199585c-3.4400024-3.1399536-8.3099976-5.1099854-13.7199707-5.1099854-10.4100342 0-18.8500366 7.2300415-18.8500366 16.1600342 0 3.5700073 1.3599854 6.8499756 3.6400146 9.5199585.5800171.6799927 1.210022 1.3099976 1.9000244 1.9000244l4.6199951 4.6199913c-.2900391.5800171-.6400146 1.1400146-1.0500488 1.6900024l-20.6899414-20.799984c-.0100098-.0200195-.0200195-.0300293-.0400391-.0499878l-.039978-.0300293c-.7000122-.6699829-1.75-.9199829-2.7100182-.539978-1.2299805.4799805-1.8699951 1.8099976-1.5200195 3.0599976-2.5499878 5.7099609-9.8899536 19.760006-23.5199585 28.1099815l-12.5499897 4.9299927c-.8900146.3400269-1.3300171 1.3200073-1.0400391 2.2299805l-.7999878.3099976c-.4699707.1800537-.7000122.710022-.5100098 1.1700439l2.6799927 6.8299561c.0900269.2400513.2800293.4200439.5100098.5100098l10.5000019 10.5 2.25 5.7300415c.2600098.6799927.7200317 1.2199707 1.2800293 1.5999756l22.8861694 22.8862381c2.1688806.2221068 4.3695032.3372191 6.5971033.3372191 35.3463134 0 64.0000076-28.6538162 64.0000076-64.0000076z" opacity=".1"/><path d="m32.0960999 91.007164 7.1356735 18.1706772c.6972847 1.7756119 2.7019463 2.6497803 4.4775505 1.9524994 1.7756081-.6972885 2.649765-2.7019806 1.9524803-4.4775848l-7.1356735-18.1706772z" fill="#cd5248"/><path d="m26.5831985 83.3444443-2.7802162 1.0917969c-.4644623.1823959-.693121.7068329-.5107479 1.1712341l2.6832008 6.8326569c.1823978.4644623.706789.6931 1.1712513.510704l2.7802162-1.0917969c.4644623-.1823959.6931438-.7067719.5107479-1.1712341l-2.6832008-6.8326569c-.182373-.4644012-.706789-.6931-1.1712513-.510704z" fill="#dbd8dd"/><path d="m42.7667198 88.6165695.0100098.0199585-4.1484032 1.0470734-6.1220322 1.6979065-2.2796154 2.1850128c-.9199829.3600464-1.9699707-.0999756-2.3299561-1.0299683l-3.2600098-8.2999878c-.3699951-.9299927.0799561-1.9800415 1.0100098-2.3400269l12.5499897-4.9299927c17.4099731-10.6699829 24.5599976-30.6400108 24.5599976-30.6400108l18.8599816 48.0200158s-18.8300133-9.7700195-38.8499718-5.7299805z" fill="#dbd8dd"/><path d="m25.6436729 81.8929901c-.9222984.3621902-1.3735409 1.4106445-1.0078793 2.3417816l3.2582264 8.2969284c.3656616.9311447 1.4097862 1.3924332 2.3320847 1.0302429l12.5500336-4.9284286-4.5824318-11.6689606z" fill="#dd584d"/><path d="m96.4522095 33.3216248c-10.4057999 0-18.841423 7.2382164-18.841423 16.167141 0 6.4504318 4.413353 12.002018 10.7807617 14.5961037-.8306198 2.3265915-2.4361572 4.8184433-5.5408249 6.2556915 0 0 7.3050613.1371078 12.0349197-4.752655.517868.0366516 1.0377197.067894 1.5665665.067894 10.4058609 0 18.8414307-7.2382164 18.8414307-16.1670341-.0000001-8.9289247-8.4355698-16.1671411-18.8414307-16.1671411z" fill="#feda6f"/><g fill="#ededed"><path d="m84.6206741 54.4236069 4.8639374-12.6652298h1.8056107l5.1835861 12.6652298h-1.9092865l-1.4773178-3.8358536h-5.2958984l-1.3909302 3.8358536zm3.6544342-5.2008667h4.2937317l-1.3218155-3.5075607c-.4031677-1.0655136-.7026596-1.9409637-.8984833-2.6263504-.1612701.8120956-.3887711 1.6184311-.6825104 2.4190102z"/><path d="m97.8129044 54.4236069v-12.6652298h4.362854c.9848785 0 1.736496.0604744 2.2548599.181427.7257004.1670265 1.3448486.4694023 1.8574524.9071274.6681061.5644341 1.1677475 1.2858162 1.4989166 2.1641464.3311768.8783302.4967651 1.8819275.4967651 3.0107994 0 .9618416-.1123123 1.8142548-.336937 2.5572357s-.5125961 1.357811-.8639297 1.8444939c-.3513336.4866791-.7357788.8696899-1.1533508 1.1490288-.4175644.279335-.921524.4910011-1.511879.6349869-.5903549.1439896-1.2685394.2159843-2.0345535.2159843zm1.6760253-1.4946022h2.7041092c.8351288 0 1.4902802-.0777512 1.9654388-.2332611.4751663-.1555061.8538513-.3743706 1.1360703-.6565857.3974075-.3974113.7069855-.9316063.9287262-1.6025925s.3326111-1.4845238.3326111-2.4406052c0-1.3246956-.2174225-2.3426933-.6522675-3.053997s-.9632797-1.1879044-1.5853119-1.4298058c-.4492416-.1727867-1.1720657-.2591782-2.1684647-.2591782h-2.6609116v9.6760255z"/><path d="m63.2368622 45.7949944c-1.3188782.5179253-1.9681549 2.0069656-1.4502563 3.325779l17.2175751 43.8437881c.5178986 1.3188095 2.0069427 1.9681931 3.3258209 1.4502716 1.3188782-.5179291 1.968132-2.0070267 1.4502335-3.3258438l-17.2175752-43.8437844c-.5179062-1.3188133-2.0069198-1.9681358-3.325798-1.4502105z"/></g></svg>